<svg version="1.1" id="Layer_1" xmlns="http://www.w3.org/2000/svg" xmlns:xlink="http://www.w3.org/1999/xlink" x="0px" y="0px" viewBox="0 0 500 500" style="width: 171px;" xml:space="preserve" data-imageid="team-presentation-9-44" imageName="Team Presentation 9" class="illustrations_image">
<style type="text/css">
	.st0_team-presentation-9-44{fill:#231F20;}
	.st1_team-presentation-9-44{fill:#FFFFFF;}
	.st2_team-presentation-9-44{fill:#D1D3D4;}
	.st3_team-presentation-9-44{fill:#68E1FD;}
</style>
<path id="floor_team-presentation-9-44" class="st0_team-presentation-9-44" d="M501.8,405.6H-1.8c-0.4,0-0.7-0.3-0.7-0.7l0,0c0-0.4,0.3-0.7,0.7-0.7c0,0,0,0,0,0h503.7&#10;&#9;c0.4,0,0.7,0.3,0.7,0.7C502.6,405.3,502.2,405.6,501.8,405.6L501.8,405.6z"/>
<g id="Plant_team-presentation-9-44">
	<path class="st1_team-presentation-9-44" d="M191.2,369.2c-2.6-2.3-5.5-4.2-8.7-5.7c-0.3,9.3,3.5,17.9,7,23.8h11.4"/>
	<path class="st0_team-presentation-9-44" d="M200.8,388h-11.4c-0.3,0-0.5-0.1-0.6-0.4c-3.4-5.7-7.4-14.5-7.1-24.2c0-0.2,0.1-0.5,0.3-0.6&#10;&#9;&#9;c0.2-0.1,0.5-0.2,0.7-0.1c3.3,1.5,6.3,3.4,8.9,5.8c0.3,0.3,0.3,0.7,0.1,1.1c0,0,0,0,0,0c-0.3,0.3-0.7,0.3-1.1,0.1&#10;&#9;&#9;c-2.3-2-4.8-3.7-7.5-5.1c0.1,8.6,3.6,16.5,6.7,21.8h10.9c0.4,0,0.8,0.3,0.8,0.7c0,0.4-0.3,0.8-0.7,0.8&#10;&#9;&#9;C200.9,388,200.9,388,200.8,388L200.8,388z"/>
	<path class="st1_team-presentation-9-44" d="M207.4,371.7c-2.8-14.6-14.2-23.7-14.2-23.7c-2.1,6.9-2.8,14.1-2.1,21.2c0.6,6.2,1.9,12.2,3.9,18.1h12.2"/>
	<path class="st0_team-presentation-9-44" d="M207.3,388h-12.2c-0.3,0-0.6-0.2-0.7-0.5c-2.1-5.9-3.4-12-4-18.2c-0.8-7.2-0.1-14.6,2.1-21.5&#10;&#9;&#9;c0.1-0.2,0.3-0.4,0.5-0.5c0.2-0.1,0.5,0,0.7,0.1c0.5,0.4,11.7,9.5,14.5,24.2c0.1,0.4-0.2,0.8-0.6,0.9c-0.4,0.1-0.8-0.2-0.9-0.6&#10;&#9;&#9;c-2.3-11.8-10.4-20.1-13.1-22.5c-1.8,6.4-2.4,13.2-1.7,19.8c0.6,5.9,1.8,11.7,3.7,17.4h11.7c0.4,0,0.8,0.3,0.8,0.7&#10;&#9;&#9;c0,0.4-0.3,0.8-0.7,0.8C207.4,388,207.3,388,207.3,388L207.3,388z"/>
	<path class="st1_team-presentation-9-44" d="M213.5,387.2h-10.8c-0.1-3.2,0.6-8.1,4.1-14.4c0.2-0.4,0.5-0.8,0.7-1.2c6.3-10.6,12-10.5,12-10.5&#10;&#9;&#9;C221.9,372.4,216.8,382.3,213.5,387.2z"/>
	<path class="st0_team-presentation-9-44" d="M213.5,388h-10.8c-0.4,0-0.7-0.3-0.8-0.7c0,0,0,0,0,0c-0.1-3.1,0.5-8.1,4.2-14.7c0.2-0.4,0.5-0.8,0.7-1.2&#10;&#9;&#9;c6.4-10.9,12.4-10.9,12.7-10.9c0.3,0,0.6,0.3,0.7,0.6c2.5,11.5-2.7,21.6-6.1,26.6C214,387.9,213.7,388,213.5,388z M203.4,386.5h9.7&#10;&#9;&#9;c3.1-4.8,7.8-14.1,5.8-24.5c-1.6,0.3-6,2-10.8,10c-0.2,0.4-0.4,0.8-0.7,1.2C204.2,379.1,203.4,383.6,203.4,386.5z"/>
	<polygon class="st0_team-presentation-9-44" points="211.5,404.4 190.3,404.4 186.9,387.2 214.9,387.2 &#9;"/>
</g>
<g id="Presentation_team-presentation-9-44">
	<path class="st0_team-presentation-9-44" d="M249.9,378.6c-0.4,0-0.7-0.3-0.7-0.7l0,0V95.1c0-0.4,0.3-0.7,0.7-0.7c0.4,0,0.7,0.3,0.7,0.7l0,0v282.8&#10;&#9;&#9;C250.6,378.3,250.3,378.6,249.9,378.6C249.9,378.6,249.9,378.6,249.9,378.6z"/>
	<path class="st0_team-presentation-9-44" d="M224.5,405c-0.2,0-0.4-0.1-0.5-0.2c-0.3-0.3-0.3-0.7,0-1l25.5-26.3c0.3-0.3,0.7-0.3,1,0l25.5,26.3&#10;&#9;&#9;c0.2,0.3,0.2,0.8-0.1,1c-0.3,0.2-0.6,0.2-0.9,0L250,379l-24.9,25.8C224.9,404.9,224.7,405,224.5,405z"/>
	<rect x="139.9" y="101.1" class="st1_team-presentation-9-44" width="220.2" height="162.8"/>
	<path class="st0_team-presentation-9-44" d="M360.1,264.6H139.9c-0.4,0-0.7-0.3-0.8-0.8V101.1c0-0.4,0.3-0.8,0.8-0.8h220.2c0.4,0,0.8,0.3,0.8,0.7&#10;&#9;&#9;c0,0,0,0,0,0v162.8C360.9,264.3,360.5,264.7,360.1,264.6z M140.6,263.1h218.7V101.9H140.6L140.6,263.1z"/>
	<path class="st2_team-presentation-9-44" d="M213.3,209.4H161c-0.4,0-0.7-0.3-0.7-0.7c0-0.4,0.3-0.7,0.7-0.7h52.3c0.4,0,0.7,0.3,0.7,0.7&#10;&#9;&#9;C214.1,209,213.7,209.4,213.3,209.4L213.3,209.4z"/>
	<path class="st2_team-presentation-9-44" d="M213.3,221.4H161c-0.4,0-0.7-0.3-0.7-0.7c0-0.4,0.3-0.7,0.7-0.7h52.3c0.4,0,0.7,0.3,0.7,0.7&#10;&#9;&#9;C214.1,221.1,213.7,221.4,213.3,221.4L213.3,221.4z"/>
	<path class="st2_team-presentation-9-44" d="M213.3,233.4H161c-0.4,0-0.7-0.3-0.7-0.7c0-0.4,0.3-0.7,0.7-0.7h52.3c0.4,0,0.7,0.3,0.7,0.7&#10;&#9;&#9;C214.1,233.1,213.7,233.4,213.3,233.4L213.3,233.4z"/>
	<path class="st2_team-presentation-9-44" d="M200.6,245.4H161c-0.4,0-0.7-0.3-0.7-0.7c0-0.4,0.3-0.7,0.7-0.7h39.7c0.4,0,0.7,0.3,0.7,0.7&#10;&#9;&#9;C201.4,245.1,201.1,245.4,200.6,245.4L200.6,245.4z"/>
	<path class="st2_team-presentation-9-44" d="M336.5,247.2H229.7c-0.4,0-0.7-0.3-0.7-0.7v-65.8c0-0.4,0.3-0.7,0.7-0.7h106.8c0.4,0,0.7,0.3,0.7,0.7l0,0v65.8&#10;&#9;&#9;C337.3,246.8,337,247.2,336.5,247.2C336.5,247.2,336.5,247.2,336.5,247.2z M230.4,245.7h105.4v-64.3H230.4L230.4,245.7z"/>
	<path class="st2_team-presentation-9-44" d="M263.9,161.2H162.6c-0.4,0-0.7-0.3-0.7-0.7v-40.3c0-0.4,0.3-0.7,0.7-0.7h101.3c0.4,0,0.7,0.3,0.7,0.7&#10;&#9;&#9;c0,0,0,0,0,0v40.3C264.7,160.9,264.3,161.2,263.9,161.2C263.9,161.2,263.9,161.2,263.9,161.2z M163.3,159.8h99.9v-38.8h-99.9&#10;&#9;&#9;L163.3,159.8z"/>
	<path class="st2_team-presentation-9-44" d="M336.5,124.6h-52.3c-0.4,0-0.7-0.3-0.7-0.7s0.3-0.7,0.7-0.7c0,0,0,0,0,0h52.3c0.4,0,0.7,0.3,0.7,0.7&#10;&#9;&#9;C337.3,124.2,337,124.6,336.5,124.6z"/>
	<path class="st2_team-presentation-9-44" d="M336.5,134.8h-52.3c-0.4,0-0.7-0.3-0.7-0.7c0-0.4,0.3-0.7,0.7-0.7l0,0h52.3c0.4,0,0.7,0.3,0.7,0.7&#10;&#9;&#9;C337.3,134.4,337,134.8,336.5,134.8z"/>
	<path class="st2_team-presentation-9-44" d="M336.5,145h-52.3c-0.4,0-0.7-0.3-0.7-0.7c0-0.4,0.3-0.7,0.7-0.7l0,0h52.3c0.4,0,0.7,0.3,0.7,0.7&#10;&#9;&#9;C337.3,144.7,337,145,336.5,145z"/>
	<path class="st2_team-presentation-9-44" d="M336.5,155.1h-52.3c-0.4,0-0.7-0.3-0.7-0.7c0-0.4,0.3-0.7,0.7-0.7l0,0h52.3c0.4,0,0.7,0.3,0.7,0.7&#10;&#9;&#9;C337.3,154.8,337,155.1,336.5,155.1z"/>
</g>
<g id="characer_male_team-presentation-9-44">
	<path class="st1_team-presentation-9-44" d="M79.8,137.3c-0.9-3.3-1.6-6.6-2-10c-0.4-3.4,0.3-6.8,2.1-9.8c0.7-1.2,1.8-2,3.1-2.5c1.3-0.4,2.8,0,3.7,1.1&#10;&#9;&#9;c1-1.3,2.2-2.2,3.7-2.9c3.4-1.7,7.1-2.4,10.9-2.1c3.8,0.4,7.3,2.1,9.8,5c0.9,1.3,1.9,2.5,2.9,3.6c2,1.8,4.7,2.6,7.3,2&#10;&#9;&#9;c-0.7,5-3.8,9.4-7.9,12.3c-4.2,2.8-8.9,4.7-13.9,5.6c-2.6,0.6-5.2,0.8-7.9,0.6c-2.7-0.3-5.1-1.6-6.8-3.7"/>
	<path class="st0_team-presentation-9-44" d="M93.7,141.2c-0.7,0-1.5-0.1-2.2-0.1c-2.9-0.3-5.5-1.7-7.3-4c-0.2-0.3-0.2-0.8,0.2-1.1s0.8-0.2,1.1,0.2l0,0&#10;&#9;&#9;c1.5,1.9,3.8,3.2,6.3,3.4c2.6,0.3,5.1,0.1,7.6-0.6c5.8-1.2,10.1-2.9,13.6-5.4c3.7-2.5,6.4-6.4,7.4-10.8c-2.5,0.2-5-0.6-6.9-2.4&#10;&#9;&#9;c-0.7-0.7-1.3-1.5-1.9-2.3c-0.3-0.5-0.7-0.9-1-1.4c-2.4-2.7-5.7-4.4-9.3-4.7c-3.6-0.3-7.3,0.4-10.5,2c-1.3,0.6-2.5,1.5-3.4,2.6&#10;&#9;&#9;c-0.1,0.2-0.4,0.3-0.6,0.3c-0.2,0-0.5-0.1-0.6-0.3c-0.7-0.8-1.8-1.1-2.8-0.8c-1.1,0.4-2.1,1.2-2.7,2.2c-2,3-2.2,6.7-2,9.3&#10;&#9;&#9;c0.3,2.5,0.7,4.9,1.4,7.3c0.2,0.9,0.4,1.7,0.6,2.6c0.1,0.4-0.2,0.8-0.6,0.9c0,0,0,0,0,0c-0.4,0.1-0.8-0.2-0.9-0.6&#10;&#9;&#9;c-0.2-0.9-0.4-1.7-0.6-2.6c-0.7-2.5-1.2-5-1.5-7.5c-0.2-2.8-0.1-6.9,2.2-10.2c0.8-1.3,2.1-2.3,3.5-2.8c1.3-0.4,2.7-0.2,3.8,0.6&#10;&#9;&#9;c1-1,2.2-1.8,3.5-2.4c3.5-1.7,7.4-2.5,11.3-2.1c4,0.4,7.6,2.2,10.3,5.2c0.4,0.5,0.8,1,1.1,1.5c0.5,0.8,1.1,1.5,1.7,2.1&#10;&#9;&#9;c1.8,1.7,4.2,2.3,6.6,1.8c0.2,0,0.5,0,0.7,0.2c0.2,0.2,0.3,0.4,0.2,0.7c-0.6,4.8-3.6,9.5-8.2,12.8c-3.7,2.6-8.2,4.4-14.2,5.7&#10;&#9;&#9;C97.6,140.9,95.7,141.2,93.7,141.2z"/>
	<path class="st1_team-presentation-9-44" d="M103.7,152.4l1,12.1c0,0-3.6,7.5-11.4,5.7c-4.7-1.1-8.6-4.3-10.7-8.6l-0.1-22c0,0,5.8-3.1,3.9-15.7&#10;&#9;&#9;c6.4,2.7,13.4,3.6,20.3,2.6c0,0,3.7,13.6,2.8,19.6S103.7,152.4,103.7,152.4z"/>
	<path class="st0_team-presentation-9-44" d="M95.7,171.2c-0.9,0-1.7-0.1-2.5-0.3c-4.9-1.2-9-4.5-11.2-9.1c0-0.1-0.1-0.2-0.1-0.3l-0.1-22&#10;&#9;&#9;c0-0.3,0.1-0.5,0.4-0.7c0,0,5.3-3.1,3.6-14.9c-0.1-0.4,0.2-0.8,0.6-0.8c0.1,0,0.3,0,0.4,0.1c6.3,2.6,13.1,3.5,19.8,2.6&#10;&#9;&#9;c0.4-0.1,0.7,0.2,0.8,0.6c0.2,0.6,3.7,13.8,2.8,19.9c-0.7,5.1-4.2,6.4-5.8,6.8l0.9,11.4c0,0.1,0,0.3-0.1,0.4&#10;&#9;&#9;C105.4,164.9,102.3,171.2,95.7,171.2z M83.4,161.3c2,4,5.7,7,10.1,8.1c6.6,1.5,9.9-4,10.5-5.1l-1-11.9c0-0.2,0.1-0.4,0.2-0.6&#10;&#9;&#9;c0.1-0.2,0.3-0.2,0.5-0.2l0,0c0.2,0,4.3-0.3,5.1-5.6c0.7-5.1-1.9-16-2.6-18.7c-6.4,0.8-12.8,0-18.8-2.2c1.1,10.1-2.8,13.9-4.1,14.9&#10;&#9;&#9;L83.4,161.3z"/>
	<path class="st0_team-presentation-9-44" d="M104,158.4c-2.9,0.4-5.8-0.6-8-2.5c-3.5-3.3-3.2-5.2-3.2-5.2s5.6,3,10.7,1.9L104,158.4z"/>
	<path class="st0_team-presentation-9-44" d="M102.8,159.2c-2.7,0-5.3-1-7.3-2.8c-3.6-3.4-3.5-5.6-3.5-5.8c0-0.4,0.4-0.7,0.8-0.7c0.1,0,0.2,0,0.3,0.1&#10;&#9;&#9;c0.1,0,5.4,2.8,10.2,1.8c0.2,0,0.4,0,0.6,0.1c0.2,0.1,0.3,0.3,0.3,0.5l0.5,5.8c0,0.4-0.2,0.7-0.6,0.8&#10;&#9;&#9;C103.6,159.2,103.2,159.2,102.8,159.2z M93.8,151.9c0.7,1.3,1.6,2.4,2.6,3.4c1.8,1.7,4.2,2.5,6.7,2.4l-0.4-4.3&#10;&#9;&#9;C99.7,153.7,96.6,153.2,93.8,151.9L93.8,151.9z"/>
	<path class="st1_team-presentation-9-44" d="M98.3,134c0,0,3.7,6.8,2.6,7.8s-3.9,0-3.9,0"/>
	<path class="st0_team-presentation-9-44" d="M99.3,143c-0.9,0-1.8-0.2-2.6-0.5c-0.4-0.1-0.6-0.6-0.4-0.9c0.1-0.4,0.6-0.6,0.9-0.4c1,0.3,2.6,0.6,3.2,0.1&#10;&#9;&#9;c0.2-0.6-1.1-3.8-2.7-6.9c-0.2-0.4,0-0.8,0.3-1c0.3-0.2,0.8,0,1,0.3c1.8,3.3,3.7,7.6,2.4,8.7C100.8,142.8,100.1,143,99.3,143z"/>
	<path class="st0_team-presentation-9-44" d="M98.2,147.6h-0.5c-2.3-0.2-4.3-1.3-5.7-3.1c-0.3-0.3-0.3-0.8,0-1.1c0.3-0.3,0.8-0.3,1.1,0.1&#10;&#9;&#9;c1.2,1.5,2.9,2.4,4.7,2.6c2.2,0,4.3-0.8,5.9-2.2c0.3-0.2,0.7-0.2,1,0.1c0.2,0.3,0.2,0.7-0.1,1C102.9,146.5,100.6,147.5,98.2,147.6z&#10;&#9;&#9;"/>
	
		<ellipse transform="matrix(6.592558e-02 -0.9978 0.9978 6.592558e-02 -45.2128 217.4274)" class="st0_team-presentation-9-44" cx="93.5" cy="132.9" rx="1.8" ry="0.8"/>
	
		<ellipse transform="matrix(6.592558e-02 -0.9978 0.9978 6.592558e-02 -35.4859 227.8435)" class="st0_team-presentation-9-44" cx="104" cy="132.9" rx="1.8" ry="0.8"/>
	<path class="st1_team-presentation-9-44" d="M87.6,136.3c-0.7-1.2-1.6-2.2-2.7-3c-0.6-0.5-1.3-0.8-2-0.9c-0.6,0-1.2,0.2-1.7,0.5c-1.6,0.9-2.6,2.4-3,4.2&#10;&#9;&#9;c-0.2,0.8-0.1,1.7,0.1,2.4c0.4,1.2,1.3,2.3,2.4,2.9c1.1,0.6,2.3,1.1,3.6,1.5"/>
	<path class="st0_team-presentation-9-44" d="M84.2,144.7c-0.1,0-0.2,0-0.2,0c-1.3-0.4-2.5-0.9-3.7-1.6c-1.3-0.8-2.3-1.9-2.8-3.3c-0.3-0.9-0.3-1.9-0.1-2.8&#10;&#9;&#9;c0.4-2,1.6-3.7,3.4-4.7c0.6-0.4,1.4-0.6,2.1-0.6c0.9,0.1,1.7,0.4,2.4,1c1.2,0.9,2.1,2,2.9,3.3c0.2,0.4,0,0.8-0.4,1&#10;&#9;&#9;c-0.3,0.2-0.7,0.1-0.9-0.3c-0.6-1.1-1.5-2.1-2.5-2.8c-0.4-0.4-1-0.7-1.6-0.7c-0.5,0-0.9,0.1-1.3,0.4c-1.4,0.8-2.3,2.2-2.7,3.7&#10;&#9;&#9;c-0.1,0.7-0.1,1.4,0.1,2.1c0.4,1.1,1.1,2,2.1,2.5c1.1,0.6,2.2,1.1,3.4,1.5c0.4,0.1,0.6,0.6,0.5,1c0,0,0,0,0,0&#10;&#9;&#9;C84.9,144.6,84.6,144.8,84.2,144.7z"/>
	<path class="st1_team-presentation-9-44" d="M41.3,389.2c0,0-4.7,12.7-2.6,14s32.8,1.8,43.5,0c3.4-0.6-16.2-13.2-16.2-13.2"/>
	<path class="st0_team-presentation-9-44" d="M59.3,405c-10.2,0-19.7-0.5-21-1.2c-2.2-1.3,0.5-9.9,2.3-14.9c0.1-0.4,0.5-0.6,0.9-0.5&#10;&#9;&#9;c0.4,0.1,0.6,0.5,0.5,0.9c0,0,0,0,0,0.1c-2.3,6.3-3.7,12.4-2.9,13.1c1.8,1,31,1.8,42.6,0c-1.3-1.8-8.9-7.3-16.1-11.9&#10;&#9;&#9;c-0.3-0.2-0.4-0.7-0.2-1c0.2-0.3,0.7-0.4,1-0.2c8,5.1,17.4,11.6,16.9,13.6c-0.1,0.5-0.5,0.8-1,0.9C77.4,404.7,68.1,405,59.3,405z"/>
	<path class="st1_team-presentation-9-44" d="M112.3,383.3l0.6,20.5c0,0,42.2,2.1,40-0.6S131,385.9,131,385.9l-2.7-14.8L112.3,383.3z"/>
	<path class="st0_team-presentation-9-44" d="M138.8,405.4c-8.3,0-18.5-0.4-26-0.8c-0.4,0-0.7-0.3-0.7-0.7l-0.6-20.5c0-0.2,0.1-0.5,0.3-0.6l15.9-12.1&#10;&#9;&#9;c0.2-0.2,0.5-0.2,0.7-0.1c0.2,0.1,0.4,0.3,0.5,0.5l2.7,14.5c2.3,1.7,19.6,14.6,21.8,17.2c0.3,0.3,0.3,0.7,0.1,1.1&#10;&#9;&#9;C153,405,146.7,405.4,138.8,405.4z M113.6,403.1c16.8,0.8,35,1.1,38.3,0.1c-2.7-2.8-15-12-21.4-16.7c-0.2-0.1-0.3-0.3-0.3-0.5&#10;&#9;&#9;l-2.5-13.6L113,383.6L113.6,403.1z"/>
	<path class="st0_team-presentation-9-44" d="M117,240.7l18.4,148l-24.1,0.5L83.8,286L68.7,390l-27.9-1.4c0,0,4.9-58.1,7.4-80.2s6.5-60.3,6.5-60.3&#10;&#9;&#9;L117,240.7z"/>
	<path class="st1_team-presentation-9-44" d="M83.4,283.9c-0.2,0-0.3-0.1-0.5-0.2c-0.4-0.3-8.9-7.6-8.9-19c0-0.4,0.3-0.7,0.7-0.7l0,0c0.4,0,0.7,0.3,0.7,0.7&#10;&#9;&#9;l0,0c0,10.8,8.3,17.8,8.4,17.9c0.3,0.3,0.3,0.7,0.1,1C83.8,283.8,83.6,283.9,83.4,283.9z"/>
	<polygon class="st0_team-presentation-9-44" points="184.9,190 212,127 213.9,127.5 188.9,192 &#9;"/>
	<path class="st1_team-presentation-9-44" d="M169.7,192.8c3.1-1.4,6-3,8.9-4.8c4.4-3,6.4-7.4,9.1-11.8c0.2-0.5,0.6-0.8,1-1.1c0.8-0.3,1.7,0,2.2,0.7&#10;&#9;&#9;c0.4,0.7,0.7,1.5,0.9,2.3c1.6-1.8,3.6-3.3,5.8-4.4c0.3-0.1,0.5-0.2,0.8-0.2c0.4,0.1,0.7,0.2,0.9,0.5c2.5,2.2,3.7,5.5,3.4,8.8&#10;&#9;&#9;c-1.1,9.3-15.5,18-22.9,21.7"/>
	<path class="st0_team-presentation-9-44" d="M179.8,205.1c-0.3,0-0.5-0.2-0.6-0.4c-0.2-0.4-0.1-0.8,0.3-1c0,0,0,0,0,0c3.6-1.8,21.4-11.1,22.6-21.1&#10;&#9;&#9;c0.3-3.1-0.8-6.1-3.1-8.2c-0.1-0.1-0.4-0.3-0.5-0.3c-0.2,0-0.3,0.1-0.5,0.2c-2.1,1-4,2.5-5.6,4.2c-0.2,0.2-0.5,0.3-0.7,0.2&#10;&#9;&#9;c-0.3-0.1-0.5-0.3-0.5-0.6c-0.1-0.7-0.3-1.4-0.7-2c-0.3-0.4-0.8-0.6-1.3-0.5c-0.3,0.2-0.5,0.5-0.7,0.8c-0.5,0.8-1,1.6-1.4,2.4&#10;&#9;&#9;c-2.1,3.7-4.2,7.1-8,9.7c-2.9,1.8-5.9,3.5-9,4.9c-0.3,0.2-0.8,0.1-1-0.2c-0.2-0.3-0.1-0.8,0.2-1c0,0,0.1,0,0.1-0.1&#10;&#9;&#9;c3-1.4,6-3,8.8-4.8c3.5-2.3,5.4-5.7,7.5-9.2c0.5-0.8,0.9-1.6,1.4-2.4c0.3-0.6,0.7-1,1.3-1.4c1.1-0.4,2.3-0.1,3,0.9&#10;&#9;&#9;c0.3,0.4,0.5,0.8,0.7,1.3c1.5-1.5,3.2-2.7,5.1-3.6c0.8-0.5,1.9-0.4,2.6,0.4c2.7,2.4,4,5.9,3.6,9.4c-1.2,10.5-18.2,19.7-23.4,22.2&#10;&#9;&#9;C179.9,205,179.9,205,179.8,205.1z"/>
	<path class="st3_team-presentation-9-44 targetColor" d="M174.8,184.2c0,0-28.5,15.8-33.4,11.9c-10.4-8.3-27.1-29.2-32.4-34.5c-7.9-7.9-33.6-12.1-44-0.8&#10;&#9;&#9;c0,0-8.9,9.3-17.6,28c-6.8,14.7-11.3,36.6-9.9,38.4c1.8,2.2,9.4,8.8,16.5,6.5c-1.2,15.4-0.8,18.2-0.8,18.2c19,15,68.7-0.8,68.7-0.8&#10;&#9;&#9;l-5.5-42.9c0,0,2.2,11.7,20.6,15.5s52-20.6,52-20.6L174.8,184.2z" style="fill: rgb(159, 159, 159);"/>
	<path class="st0_team-presentation-9-44" d="M117,210.7c-0.2,0-0.4-0.1-0.5-0.2c-5.5-5.6-10.6-11.6-15.5-17.8c-0.2-0.3-0.2-0.8,0.2-1&#10;&#9;&#9;c0.3-0.2,0.8-0.2,1,0.1c4.8,6.2,9.9,12,15.3,17.6c0.3,0.3,0.3,0.7,0,1C117.4,210.6,117.2,210.7,117,210.7z"/>
	<path class="st0_team-presentation-9-44" d="M53.7,238.9c-0.4,0-0.7-0.3-0.7-0.7c0-0.4-1-37.6,11.8-75c0.1-0.4,0.5-0.6,0.9-0.5s0.6,0.5,0.5,0.9&#10;&#9;&#9;c0,0,0,0.1,0,0.1c-12.7,37.1-11.8,74.1-11.8,74.5C54.4,238.5,54.1,238.9,53.7,238.9C53.7,238.9,53.7,238.9,53.7,238.9L53.7,238.9z"/>
</g>
<g id="Character_female_team-presentation-9-44">
	<polygon class="st1_team-presentation-9-44" points="423.9,342.3 428,401.1 445.8,398.5 445.8,339.6 &#9;"/>
	<path class="st0_team-presentation-9-44" d="M427.3,401.9l-4.2-60.2l23.4-2.9v60.3L427.3,401.9z M424.6,342.9l4,57.3l16.4-2.4v-57.4L424.6,342.9z"/>
	<path class="st0_team-presentation-9-44" d="M447.4,404.9c0.3,0,0-8.3,0-8.3s-19.4,1.3-18.7-0.3c0.2-0.5-1-5.4-1-5.4s-12.1,4.3-15.4,7.3s-4.5,4.6-3.1,6&#10;&#9;&#9;S447.4,404.9,447.4,404.9z"/>
	<path class="st0_team-presentation-9-44" d="M431,405.7c-10.6,0-21.4-0.2-22.3-1.1c-0.5-0.4-0.8-1.1-0.7-1.7c0-1.4,1.5-3,3.9-5.2c3.3-3,15.1-7.2,15.6-7.4&#10;&#9;&#9;c0.2-0.1,0.4-0.1,0.5,0c0.2,0.1,0.3,0.2,0.3,0.4c0.5,1.8,0.9,3.6,1.1,5.5c1.6,0.5,10.2,0.4,18-0.2c0.2,0,0.3,0.1,0.5,0.2&#10;&#9;&#9;c0.1,0.1,0.2,0.3,0.2,0.5c0.2,8.3,0,8.5-0.2,8.8c-0.1,0.1-0.3,0.2-0.5,0.2l0,0C443.3,405.6,437.2,405.7,431,405.7z M427.2,391.7&#10;&#9;&#9;c-2.6,1-11.8,4.5-14.5,6.9c-1.8,1.6-3.5,3.3-3.5,4.3c0,0.3,0.1,0.6,0.4,0.8c1.6,0.8,23.4,0.8,37.2,0.6c0.1-1.1,0-4.1,0-7&#10;&#9;&#9;c-8.1,0.5-17.6,0.9-18.5-0.4c-0.2-0.2-0.2-0.6-0.1-0.8C427.9,394.5,427.6,393.1,427.2,391.7L427.2,391.7z"/>
	<polygon class="st1_team-presentation-9-44" points="382.2,348 383.7,401.1 401.5,398.5 405.2,342.3 &#9;"/>
	<path class="st0_team-presentation-9-44" d="M383,401.9l-1.5-54.5l24.5-6l-3.8,57.7L383,401.9z M383,348.6l1.5,51.7l16.4-2.4l3.6-54.5L383,348.6z"/>
	<path class="st1_team-presentation-9-44" d="M361.2,208.4l-9.1,10.3c0,0-32.1-14.2-33.7-16.7s-6.2-8.6-7.6-8.3s1.2,7.2,1.2,7.2s-13.4-5.7-13.4-4.6&#10;&#9;&#9;s-0.5,9.7,1.2,10.2s48.8,34.8,55.4,32.9s13.4-10.7,13.4-10.7"/>
	<path class="st0_team-presentation-9-44" d="M354.6,240.1c-5.9,0-26.4-13.5-47.9-28.2c-3.6-2.5-6.8-4.6-7.2-4.8c-1.4-0.4-1.8-3.3-1.7-10.2&#10;&#9;&#9;c0-0.3,0-0.5,0-0.6c0-0.3,0.1-0.5,0.4-0.6c0.3-0.2,1.1-0.8,12.6,4c-0.7-2.1-1.5-5.1-1-6.1c0.2-0.3,0.4-0.5,0.7-0.5&#10;&#9;&#9;c2.3-0.4,8.2,8.5,8.3,8.6c1.1,1.7,20.6,10.8,33,16.3l8.8-9.9c0.2-0.3,0.7-0.3,0.9-0.1c0,0,0,0,0,0c0.3,0.2,0.3,0.7,0.1,1&#10;&#9;&#9;c0,0,0,0,0,0l-9.1,10.3c-0.2,0.2-0.5,0.3-0.8,0.2c-5.4-2.4-32.3-14.4-34-17c-2.1-3.2-5.6-7.4-6.8-7.9c-0.1,0.8,0.6,3.5,1.6,6.2&#10;&#9;&#9;c0.1,0.3,0,0.5-0.2,0.7c-0.2,0.2-0.5,0.2-0.7,0.1c-5.1-2.2-10.8-4.3-12.5-4.6v0.2c-0.2,7.7,0.5,8.8,0.8,8.9c0.4,0.1,1.9,1.1,7.5,5&#10;&#9;&#9;c12.8,8.8,42.7,29.3,47.5,27.9c6.3-1.8,13-10.4,13-10.4c0.2-0.3,0.6-0.3,0.9-0.1c0,0,0,0,0,0c0.3,0.2,0.3,0.6,0.1,0.9c0,0,0,0,0,0&#10;&#9;&#9;c-0.3,0.4-7,8.9-13.7,10.9C355.1,240.1,354.9,240.1,354.6,240.1z"/>
	<path class="st0_team-presentation-9-44" d="M375.7,353.3c-0.3-27.2,0.2-69.6,0.2-85.8s7.7-40.8,7.7-40.8l53.6-1.7c0,0,10.7,54,13.2,128.3L375.7,353.3z"/>
	<path class="st0_team-presentation-9-44" d="M450.4,353.9h-74.7c-0.4,0-0.6-0.3-0.6-0.6c0,0,0,0,0,0c-0.2-18.5,0-43.4,0.1-63.4c0.1-9.3,0.1-17.2,0.1-22.4&#10;&#9;&#9;c0-16.1,7.6-40.7,7.7-41c0.1-0.3,0.3-0.4,0.6-0.4l53.6-1.7c0.3,0,0.6,0.2,0.6,0.5c0.1,0.5,10.8,54.9,13.2,128.4&#10;&#9;&#9;c0,0.2-0.1,0.3-0.2,0.5C450.8,353.8,450.6,353.9,450.4,353.9z M376.3,352.6h73.4c-2.4-69.1-12-121.2-13.1-127l-52.6,1.7&#10;&#9;&#9;c-1,3.4-7.5,25.4-7.5,40.1c0,5.2,0,13.1-0.1,22.4C376.3,309.7,376.1,334.2,376.3,352.6z"/>
	<path class="st1_team-presentation-9-44" d="M429.7,162.2c-0.5-3.5,2-7.1,2.7-10.8c1-5.2-1.8-9.8-4-14.2c-2.1-4.2-2.5-9.2-5.3-12.8&#10;&#9;&#9;c-5.4-6.9-16.5-11.4-24.9-8.2c-9.5,3.6-16.3,13.2-15,23.6c0.3,2.4,1,4.8,0.5,7.2c-1.1,5-7.3,8.7-6.1,13.7c0.4,1.7,1.7,3.1,2.3,4.8&#10;&#9;&#9;c2.1,5.1-2,10.6-3,16c-0.9,4.8,0.5,9.7,2,14.4c1.3,4,3,8.4,6.7,10.4c2.3,1.3,5,1.5,7.7,1.5c11.7,0.2,24-2.1,32.8-9.8&#10;&#9;&#9;s12.5-21.9,5.9-31.4c-0.7-0.9-1.4-1.9-1.9-3C429.9,163.1,429.8,162.6,429.7,162.2z"/>
	<path class="st0_team-presentation-9-44" d="M394.6,208.3h-1.3c-2.6,0-5.5-0.2-8-1.6c-3.9-2.2-5.7-6.7-7-10.8c-1.6-4.7-3-9.8-2.1-14.7&#10;&#9;&#9;c0.4-1.9,1-3.7,1.7-5.5c1.3-3.6,2.6-6.9,1.3-10.1c-0.3-0.6-0.6-1.3-1-1.8c-0.6-0.9-1.1-1.9-1.4-3c-0.8-3.2,1.2-5.8,3.1-8.4&#10;&#9;&#9;c1.3-1.8,2.7-3.6,3.1-5.6c0.2-1.7,0.2-3.5-0.2-5.1c-0.1-0.6-0.2-1.2-0.3-1.8c-1.3-10.1,5.2-20.3,15.4-24.2&#10;&#9;&#9;c9.1-3.5,20.4,1.7,25.6,8.4c1.8,2.2,2.6,5,3.4,7.6c0.5,1.8,1.2,3.6,2,5.3l0.7,1.4c2.1,4.1,4.3,8.4,3.4,13.3&#10;&#9;&#9;c-0.3,1.5-0.8,2.9-1.4,4.3c-0.8,2.2-1.6,4.3-1.3,6.3l0,0c0.1,0.4,0.2,0.8,0.3,1.2c0.4,0.8,0.8,1.5,1.3,2.2l0.5,0.6&#10;&#9;&#9;c5.6,8.1,5,22.7-6,32.3C419.1,204.9,408,208.3,394.6,208.3z M404.1,115.8c-1.9,0-3.9,0.3-5.7,1c-9.6,3.7-15.8,13.3-14.6,22.8&#10;&#9;&#9;c0.1,0.6,0.2,1.2,0.3,1.8c0.4,1.8,0.5,3.8,0.2,5.6c-0.5,2.3-1.9,4.2-3.3,6.1c-1.8,2.4-3.5,4.7-2.9,7.3c0.3,0.9,0.7,1.8,1.2,2.6&#10;&#9;&#9;c0.4,0.6,0.8,1.3,1.1,2c1.5,3.7,0.1,7.4-1.3,11.1c-0.7,1.7-1.3,3.5-1.7,5.3c-0.9,4.6,0.4,9.3,2,14c1.3,3.8,2.9,8.1,6.4,10&#10;&#9;&#9;c2.2,1.2,5,1.4,7.4,1.4c13.7,0.2,24.9-3.1,32.3-9.6c10.4-9.1,11.1-22.9,5.8-30.5l-0.5-0.6c-0.6-0.8-1.1-1.6-1.5-2.5&#10;&#9;&#9;c-0.2-0.5-0.3-1-0.4-1.5c-0.4-2.3,0.5-4.7,1.4-6.9c0.5-1.3,1-2.7,1.3-4.1c0.8-4.4-1.3-8.5-3.3-12.4l-0.7-1.4&#10;&#9;&#9;c-0.8-1.8-1.5-3.6-2-5.5c-0.8-2.6-1.6-5.2-3.2-7.2C418,119.2,411.2,116,404.1,115.8z"/>
	<path class="st3_team-presentation-9-44 targetColor" d="M381.6,174.7l-26.1,33.1c0,0,2.6,6,13.4,30.1c9.5-4.7,25.3-30.4,25.3-30.4L381.6,174.7z" style="fill: rgb(159, 159, 159);"/>
	<path class="st3_team-presentation-9-44 targetColor" d="M405.4,166.6c0,0-20.8,1.9-25.8,10.4s-3.6,58.7-3.6,58.7l63.4,1.2c0,0,6.3-50.6-2.3-63.7&#10;&#9;&#9;C433.9,165.7,425.2,165.7,405.4,166.6z" style="fill: rgb(159, 159, 159);"/>
	<polygon class="st1_team-presentation-9-44" points="417.7,167.6 416.1,236.6 395.1,235.8 399.2,170.9 &#9;"/>
	<path class="st1_team-presentation-9-44" d="M399.3,159.6l-0.1,12.2c0,0,1.2,6.8,8.6,4.7c4.4-1.3,8-4.5,9.8-8.7l-0.8-21.1c-1-3.7-1.4-7.5-1.2-11.3&#10;&#9;&#9;c-9-0.1-16.1-6.9-16.1-6.9s-3.1,4.6-4.4,6.1c-1.1,1.1-2,2.3-2.8,3.7c-1.2,2.3-1.2,5.3-1.1,7.9c0,3.1,0.3,6.1,0.9,9.2&#10;&#9;&#9;C393.3,161.1,399.3,159.6,399.3,159.6z"/>
	<path class="st0_team-presentation-9-44" d="M405.2,177.6c-1.2,0-2.5-0.3-3.5-1c-1.6-1.1-2.7-2.8-3.1-4.7l0.1-11.5c-1.6,0.2-3.2-0.1-4.6-0.9&#10;&#9;&#9;c-1.4-0.9-2.3-2.4-2.6-4c-0.6-3.1-0.9-6.2-0.9-9.3c0-2.5-0.1-5.7,1.2-8.2c0.8-1.4,1.8-2.7,2.9-3.8c1.3-1.4,4.3-6,4.4-6&#10;&#9;&#9;c0.1-0.2,0.3-0.3,0.5-0.3c0.2,0,0.4,0,0.5,0.2c0.1,0.1,7,6.6,15.6,6.7c0.2,0,0.3,0.1,0.5,0.2c0.1,0.1,0.2,0.3,0.2,0.5&#10;&#9;&#9;c-0.2,3.4,0.2,6.8,1,10.2c0.1,0.4,0.2,0.7,0.2,1.1c0,0.1,0.8,21.1,0.8,21.1c0,0.1,0,0.2,0,0.2c-1.9,4.5-5.6,7.8-10.3,9.1&#10;&#9;&#9;C407.2,177.5,406.2,177.6,405.2,177.6z M399.9,171.8c0.4,1.5,1.3,2.8,2.5,3.7c1.6,0.9,3.5,1,5.2,0.4c4.2-1.2,7.6-4.2,9.3-8.2&#10;&#9;&#9;c-0.8-20.9-0.8-20.9-0.8-20.9c0-0.3-0.1-0.5-0.2-0.8c-0.8-3.2-1.1-6.5-1-9.9c-7.5-0.4-13.4-5-15.3-6.6c-1.3,1.9-2.6,3.8-4.1,5.6&#10;&#9;&#9;c-1,1.1-1.9,2.2-2.7,3.5c-1.2,2.2-1.1,5-1.1,7.5c0,3,0.3,6,0.9,9c0.2,1.3,0.9,2.4,2,3.2c1.3,0.7,2.9,0.9,4.4,0.6&#10;&#9;&#9;c0.2,0,0.4,0,0.6,0.1c0.2,0.1,0.3,0.3,0.2,0.5L399.9,171.8L399.9,171.8z"/>
	<path class="st0_team-presentation-9-44" d="M399.4,165.6c0,0,4.9,0.2,8.1-3.1s2.7-6.6,2.7-6.6s-5.3,3.6-10.9,3.7L399.4,165.6z"/>
	<path class="st0_team-presentation-9-44" d="M399.6,166.3h-0.2c-0.3,0-0.6-0.3-0.6-0.6l-0.1-6c0-0.4,0.3-0.6,0.6-0.6c0,0,0,0,0,0&#10;&#9;&#9;c5.3-0.1,10.5-3.6,10.5-3.6c0.2-0.1,0.4-0.2,0.6-0.1c0.2,0.1,0.3,0.3,0.4,0.5c0,0.1,0.5,3.7-2.9,7.1&#10;&#9;&#9;C405,166.1,400.7,166.3,399.6,166.3z M400,160.3l0,4.7c2.6-0.1,5.1-1.1,7-2.9c1.4-1.3,2.3-3.1,2.5-5&#10;&#9;&#9;C406.6,158.8,403.4,159.9,400,160.3L400,160.3z"/>
	<path class="st1_team-presentation-9-44" d="M403.6,142.2c0,0-3.9,5.8-3,6.9s3.5,0.3,3.5,0.3"/>
	<path class="st0_team-presentation-9-44" d="M402.5,150.2c-0.8,0.1-1.7-0.2-2.3-0.8c-1-1.1,1-4.8,2.9-7.6c0.2-0.3,0.6-0.4,0.9-0.2c0.3,0.2,0.4,0.6,0.2,0.9&#10;&#9;&#9;c-1.8,2.7-3.2,5.5-3,6.1c0.4,0.4,2,0.3,2.9,0.1c0.3-0.1,0.7,0,0.8,0.4c0.1,0.3,0,0.7-0.4,0.8c0,0-0.1,0-0.2,0&#10;&#9;&#9;C403.7,150.1,403.1,150.2,402.5,150.2z"/>
	
		<ellipse transform="matrix(3.925982e-02 -0.9992 0.9992 3.925982e-02 241.4131 533.3398)" class="st0_team-presentation-9-44" cx="398.1" cy="141.1" rx="1.3" ry="0.7"/>
	
		<ellipse transform="matrix(3.925982e-02 -0.9992 0.9992 3.925982e-02 251.4713 541.485)" class="st0_team-presentation-9-44" cx="407.3" cy="140" rx="1.3" ry="0.7"/>
	<path class="st1_team-presentation-9-44" d="M401,152.5l3.1-0.8c0,0,0.6,4.6-1.1,5S401,152.5,401,152.5z"/>
	<path class="st0_team-presentation-9-44" d="M402.8,157.3c-0.3,0-0.7-0.1-0.9-0.3c-1.2-1-1.5-3.9-1.5-4.5c0-0.3,0.2-0.6,0.5-0.7l3.1-0.8&#10;&#9;&#9;c0.2,0,0.4,0,0.5,0.1c0.2,0.1,0.3,0.3,0.3,0.4c0.1,0.9,0.6,5.2-1.6,5.7C403,157.3,402.9,157.3,402.8,157.3z M401.6,152.9&#10;&#9;&#9;c0.1,1.2,0.5,2.6,1,3c0.1,0,0.2,0,0.2,0c0.6-0.1,0.8-2,0.7-3.5L401.6,152.9z"/>
	<path class="st0_team-presentation-9-44" d="M375.9,236.6L375.9,236.6c-0.4,0-0.7-0.4-0.6-0.7l5.7-49.9c0.1-0.3,0.4-0.6,0.7-0.6c0.4,0,0.6,0.4,0.6,0.7&#10;&#9;&#9;l-5.7,49.9C376.5,236.3,376.2,236.6,375.9,236.6z"/>
	<path class="st1_team-presentation-9-44" d="M412.8,140.5c0.5-1.5,1.2-2.9,2.3-4.1c1.1-1.2,2.8-1.6,4.3-1c1.6,0.8,2.1,2.8,2.1,4.5c-0.1,2-0.4,4-1.1,5.8&#10;&#9;&#9;c-0.3,1.1-0.9,2.2-1.7,3c-0.8,0.9-2.2,1-3.2,0.4"/>
	<path class="st0_team-presentation-9-44" d="M416.7,150.2c-0.6,0-1.1-0.2-1.6-0.5c-0.3-0.2-0.3-0.7-0.1-0.9c0.2-0.2,0.5-0.3,0.8-0.2&#10;&#9;&#9;c0.8,0.4,1.8,0.2,2.4-0.4c0.7-0.8,1.2-1.7,1.5-2.8c0.6-1.8,1-3.7,1-5.6c0-0.7-0.1-3.1-1.7-3.9c-1.3-0.4-2.7-0.1-3.5,0.9&#10;&#9;&#9;c-1,1.1-1.7,2.5-2.1,3.9c-0.1,0.3-0.5,0.5-0.9,0.4c-0.3-0.1-0.5-0.5-0.4-0.9c0.5-1.6,1.3-3.1,2.4-4.4c1.3-1.4,3.3-1.9,5.1-1.2&#10;&#9;&#9;c2.2,1.1,2.5,3.9,2.5,5.1c0,2-0.4,4.1-1.1,6c-0.3,1.3-1,2.4-1.9,3.3C418.5,149.8,417.6,150.2,416.7,150.2z"/>
	<path class="st3_team-presentation-9-44 targetColor" d="M460.3,291.6c-1.4,0.3-46.3-20.5-46.3-20.5l-16.2,33.1l47.3,22.8L460.3,291.6z" style="fill: rgb(159, 159, 159);"/>
	<path class="st1_team-presentation-9-44" d="M456.5,223c0,0-4.4,50.8-16.2,66.1c0,0-8.5,7.7-10.8,5.2s-4-7.9-2.3-9.9c1.5-1.6,3.2-3.1,4.9-4.4&#10;&#9;&#9;c0,0-3-3.3-2.6-4.1s4.7-3.6,4.7-3.6l3-47.4"/>
	<path class="st0_team-presentation-9-44" d="M430.8,295.5c-0.7,0-1.3-0.2-1.7-0.7c-2.4-2.5-4.4-8.4-2.4-10.8c1.4-1.5,2.9-2.8,4.5-4&#10;&#9;&#9;c-1.8-2.1-2.6-3.5-2.2-4.3s3.2-2.7,4.7-3.6l3-47.1c0-0.4,0.3-0.6,0.7-0.6l0,0c0.4,0,0.6,0.3,0.6,0.7c0,0,0,0,0,0l-3,47.5&#10;&#9;&#9;c0,0.2-0.1,0.4-0.3,0.5c-1.6,0.9-3.1,2-4.5,3.3c0.7,1.2,1.5,2.4,2.5,3.4c0.1,0.1,0.2,0.3,0.2,0.5c0,0.2-0.1,0.4-0.3,0.5&#10;&#9;&#9;c-1.7,1.3-3.3,2.7-4.8,4.3c-1.3,1.5,0,6.5,2.3,9c1.3,1.4,6.7-2.3,9.9-5.3c11.5-15,15.9-65.2,16-65.7c0-0.4,0.4-0.6,0.7-0.6&#10;&#9;&#9;c0.4,0,0.6,0.3,0.6,0.7c0,0,0,0,0,0c-0.2,2.1-4.5,51.2-16.3,66.5C439.5,290.8,434.1,295.5,430.8,295.5z"/>
	<path class="st3_team-presentation-9-44 targetColor" d="M434.2,169.3c0,0,11.6,8.1,15.5,15.8s10.6,44.4,10.6,44.4h-27.9L434.2,169.3z" style="fill: rgb(159, 159, 159);"/>
	<path class="st0_team-presentation-9-44" d="M453.7,230.1h-21.3c-0.3,0-0.6-0.3-0.6-0.6l-3.4-43.3c0-0.4,0.2-0.7,0.6-0.7c0.4,0,0.7,0.2,0.7,0.6&#10;&#9;&#9;c0,0,0,0,0,0l3.3,42.7h20.7c0.4,0,0.7,0.2,0.7,0.6c0,0.4-0.2,0.7-0.6,0.7C453.8,230.1,453.8,230.1,453.7,230.1L453.7,230.1z"/>
	<path class="st0_team-presentation-9-44" d="M403,404.9c0.3,0,0-8.3,0-8.3s-19.4,1.3-18.7-0.3c0.2-0.5-1-5.4-1-5.4s-12.1,4.3-15.4,7.3s-4.5,4.6-3.1,6&#10;&#9;&#9;S403,404.9,403,404.9z"/>
	<path class="st0_team-presentation-9-44" d="M386.7,405.7c-10.6,0-21.4-0.2-22.3-1.1c-0.5-0.4-0.7-1.1-0.7-1.7c0-1.4,1.5-3,3.9-5.2&#10;&#9;&#9;c3.3-3,15.1-7.2,15.6-7.4c0.2-0.1,0.4-0.1,0.5,0c0.2,0.1,0.3,0.2,0.3,0.4c0.5,1.8,0.9,3.6,1.1,5.5c1.6,0.5,10.2,0.4,18-0.2&#10;&#9;&#9;c0.2,0,0.3,0.1,0.5,0.2c0.1,0.1,0.2,0.3,0.2,0.5c0.2,8.3,0,8.5-0.2,8.8c-0.1,0.1-0.3,0.2-0.5,0.2l0,0&#10;&#9;&#9;C399,405.6,392.9,405.7,386.7,405.7z M382.9,391.7c-2.6,1-11.8,4.5-14.5,6.9c-1.8,1.6-3.5,3.3-3.5,4.3c0,0.3,0.1,0.6,0.4,0.8&#10;&#9;&#9;c1.6,0.8,23.4,0.8,37.2,0.6c0.1-1.1,0-4.1,0-7c-8.1,0.5-17.6,0.9-18.5-0.4c-0.2-0.2-0.2-0.6-0.1-0.8&#10;&#9;&#9;C383.6,394.5,383.3,393.1,382.9,391.7L382.9,391.7z"/>
</g>
</svg>